<svg width="135" height="41" viewBox="0 0 135 41" fill="none" xmlns="http://www.w3.org/2000/svg">
<path d="M130 40.7197H5C2.2 40.7197 0 38.4197 0 35.7197V5.71973C0 2.91973 2.3 0.719727 5 0.719727H130C132.8 0.719727 135 3.01973 135 5.71973V35.7197C135 38.5197 132.8 40.7197 130 40.7197Z" fill="black"/>
<path d="M130 1.51973C132.3 1.51973 134.2 3.41973 134.2 5.71973V35.7197C134.2 38.0197 132.3 39.9197 130 39.9197H5C2.7 39.9197 0.8 38.0197 0.8 35.7197V5.71973C0.8 3.41973 2.7 1.51973 5 1.51973H130ZM130 0.719727H5C2.3 0.719727 0 3.01973 0 5.71973V35.7197C0 38.5197 2.3 40.7197 5 40.7197H130C132.8 40.7197 135 38.4197 135 35.7197V5.71973C135 3.01973 132.8 0.719727 130 0.719727Z" fill="#A6A6A6"/>
<path d="M68.1001 22.5198C65.7001 22.5198 63.8001 24.3198 63.8001 26.8198C63.8001 29.2198 65.7001 31.1198 68.1001 31.1198C70.5001 31.1198 72.4001 29.3198 72.4001 26.8198C72.4001 24.2198 70.5001 22.5198 68.1001 22.5198ZM68.1001 29.3198C66.8001 29.3198 65.7001 28.2198 65.7001 26.7198C65.7001 25.2198 66.8001 24.1198 68.1001 24.1198C69.4001 24.1198 70.5001 25.1198 70.5001 26.7198C70.5001 28.2198 69.4001 29.3198 68.1001 29.3198ZM58.8001 22.5198C56.4001 22.5198 54.5001 24.3198 54.5001 26.8198C54.5001 29.2198 56.4001 31.1198 58.8001 31.1198C61.2001 31.1198 63.1001 29.3198 63.1001 26.8198C63.1001 24.2198 61.2001 22.5198 58.8001 22.5198ZM58.8001 29.3198C57.5001 29.3198 56.4001 28.2198 56.4001 26.7198C56.4001 25.2198 57.5001 24.1198 58.8001 24.1198C60.1001 24.1198 61.2001 25.1198 61.2001 26.7198C61.2001 28.2198 60.1001 29.3198 58.8001 29.3198ZM47.7001 23.8198V25.6198H52.0001C51.9001 26.6198 51.5001 27.4198 51.0001 27.9198C50.4001 28.5198 49.4001 29.2198 47.7001 29.2198C45.0001 29.2198 43.0001 27.1198 43.0001 24.4198C43.0001 21.7198 45.1001 19.6198 47.7001 19.6198C49.1001 19.6198 50.2001 20.2198 51.0001 20.9198L52.3001 19.6198C51.2001 18.6198 49.8001 17.8198 47.8001 17.8198C44.2001 17.8198 41.1001 20.8198 41.1001 24.4198C41.1001 28.0198 44.2001 31.0198 47.8001 31.0198C49.8001 31.0198 51.2001 30.4198 52.4001 29.1198C53.6001 27.9198 54.0001 26.2198 54.0001 24.9198C54.0001 24.5198 54.0001 24.1198 53.9001 23.8198H47.7001ZM93.1001 25.2198C92.7001 24.2198 91.7001 22.5198 89.5001 22.5198C87.3001 22.5198 85.5001 24.2198 85.5001 26.8198C85.5001 29.2198 87.3001 31.1198 89.7001 31.1198C91.6001 31.1198 92.8001 29.9198 93.2001 29.2198L91.8001 28.2198C91.3001 28.9198 90.7001 29.4198 89.7001 29.4198C88.7001 29.4198 88.1001 29.0198 87.6001 28.1198L93.3001 25.7198L93.1001 25.2198ZM87.3001 26.6198C87.3001 25.0198 88.6001 24.1198 89.5001 24.1198C90.2001 24.1198 90.9001 24.5198 91.1001 25.0198L87.3001 26.6198ZM82.6001 30.7198H84.5001V18.2198H82.6001V30.7198ZM79.6001 23.4198C79.1001 22.9198 78.3001 22.4198 77.3001 22.4198C75.2001 22.4198 73.2001 24.3198 73.2001 26.7198C73.2001 29.1198 75.1001 30.9198 77.3001 30.9198C78.3001 30.9198 79.1001 30.4198 79.5001 29.9198H79.6001V30.5198C79.6001 32.1198 78.7001 33.0198 77.3001 33.0198C76.2001 33.0198 75.4001 32.2198 75.2001 31.5198L73.6001 32.2198C74.1001 33.3198 75.3001 34.7198 77.4001 34.7198C79.6001 34.7198 81.4001 33.4198 81.4001 30.3198V22.7198H79.6001V23.4198ZM77.4001 29.3198C76.1001 29.3198 75.0001 28.2198 75.0001 26.7198C75.0001 25.2198 76.1001 24.1198 77.4001 24.1198C78.7001 24.1198 79.7001 25.2198 79.7001 26.7198C79.7001 28.2198 78.7001 29.3198 77.4001 29.3198ZM101.8 18.2198H97.3001V30.7198H99.2001V26.0198H101.8C103.9 26.0198 105.9 24.5198 105.9 22.1198C105.9 19.7198 103.9 18.2198 101.8 18.2198ZM101.9 24.2198H99.2001V19.9198H101.9C103.3 19.9198 104.1 21.1198 104.1 22.0198C104 23.1198 103.2 24.2198 101.9 24.2198ZM113.4 22.4198C112 22.4198 110.6 23.0198 110.1 24.3198L111.8 25.0198C112.2 24.3198 112.8 24.1198 113.5 24.1198C114.5 24.1198 115.4 24.7198 115.5 25.7198V25.8198C115.2 25.6198 114.4 25.3198 113.6 25.3198C111.8 25.3198 110 26.3198 110 28.1198C110 29.8198 111.5 30.9198 113.1 30.9198C114.4 30.9198 115 30.3198 115.5 29.7198H115.6V30.7198H117.4V25.9198C117.2 23.7198 115.5 22.4198 113.4 22.4198ZM113.2 29.3198C112.6 29.3198 111.7 29.0198 111.7 28.2198C111.7 27.2198 112.8 26.9198 113.7 26.9198C114.5 26.9198 114.9 27.1198 115.4 27.3198C115.2 28.5198 114.2 29.3198 113.2 29.3198ZM123.7 22.7198L121.6 28.1198H121.5L119.3 22.7198H117.3L120.6 30.3198L118.7 34.5198H120.6L125.7 22.7198H123.7ZM106.9 30.7198H108.8V18.2198H106.9V30.7198Z" fill="white"/>
<path d="M10.4 8.21973C10.1 8.51973 10 9.01973 10 9.61973V31.7197C10 32.3197 10.2 32.8197 10.5 33.1197L10.6 33.2197L23 20.8197V20.7197V20.6197L10.4 8.21973Z" fill="url(#paint0_linear)"/>
<path d="M26.9999 25.0195L22.8999 20.9195V20.7195V20.6195L26.9999 16.5195L27.0999 16.6195L31.9999 19.4195C33.3999 20.2195 33.3999 21.5195 31.9999 22.3195L26.9999 25.0195Z" fill="url(#paint1_linear)"/>
<path d="M27.0999 24.9197L22.8999 20.7197L10.3999 33.2197C10.8999 33.7197 11.5999 33.7197 12.4999 33.3197L27.0999 24.9197Z" fill="url(#paint2_linear)"/>
<path d="M27.0999 16.5198L12.4999 8.21984C11.5999 7.71984 10.8999 7.81984 10.3999 8.31984L22.8999 20.7198L27.0999 16.5198Z" fill="url(#paint3_linear)"/>
<path opacity="0.2" d="M26.9999 24.8198L12.4999 33.0198C11.6999 33.5198 10.9999 33.4198 10.4999 33.0198L10.3999 33.1198L10.4999 33.2198C10.9999 33.6198 11.6999 33.7198 12.4999 33.2198L26.9999 24.8198Z" fill="black"/>
<path opacity="0.12" d="M10.4 33.0191C10.1 32.7191 10 32.2191 10 31.6191V31.7191C10 32.3191 10.2 32.8191 10.5 33.1191V33.0191H10.4Z" fill="black"/>
<path opacity="0.12" d="M32 22.0197L27 24.8197L27.1 24.9197L32 22.1197C32.7 21.7197 33 21.2197 33 20.7197C33 21.2197 32.6 21.6197 32 22.0197Z" fill="black"/>
<path opacity="0.25" d="M12.5 8.31951L32 19.4195C32.6 19.8195 33 20.2195 33 20.7195C33 20.2195 32.7 19.7195 32 19.3195L12.5 8.21951C11.1 7.41951 10 8.01951 10 9.61951V9.71951C10 8.21951 11.1 7.51951 12.5 8.31951Z" fill="white"/>
<path d="M42.0999 15.0197H41.3999V13.0197H41.9999C42.4999 12.6197 42.7999 11.8197 42.7999 10.7197V7.71973H46.7999V13.0197H47.4999V15.0197H46.7999V13.7197H42.1999V15.0197H42.0999ZM43.4999 10.7197C43.4999 11.6197 43.2999 12.4197 42.8999 13.0197H45.8999V8.41973H43.3999V10.7197H43.4999Z" fill="white" stroke="white" stroke-width="0.2" stroke-miterlimit="10"/>
<path d="M53.3996 12.9196C52.7996 13.5196 52.0996 13.8196 51.1996 13.8196C50.2996 13.8196 49.5996 13.5196 48.9996 12.9196C48.3996 12.3196 48.0996 11.6196 48.0996 10.7196C48.0996 9.81963 48.3996 9.11963 48.9996 8.51963C49.5996 7.91963 50.2996 7.61963 51.1996 7.61963C52.0996 7.61963 52.7996 7.91963 53.3996 8.51963C53.9996 9.11963 54.2996 9.81963 54.2996 10.7196C54.2996 11.6196 53.9996 12.3196 53.3996 12.9196ZM49.5996 12.4196C49.9996 12.8196 50.5996 13.1196 51.1996 13.1196C51.7996 13.1196 52.3996 12.9196 52.7996 12.4196C53.1996 12.0196 53.4996 11.4196 53.4996 10.7196C53.4996 10.0196 53.2996 9.41963 52.7996 9.01963C52.3996 8.61963 51.7996 8.31963 51.1996 8.31963C50.5996 8.31963 49.9996 8.51963 49.5996 9.01963C49.1996 9.41963 48.8996 10.0196 48.8996 10.7196C48.8996 11.4196 49.0996 12.0196 49.5996 12.4196Z" fill="white" stroke="white" stroke-width="0.2" stroke-miterlimit="10"/>
<path d="M58.1996 13.8196C57.2996 13.8196 56.5996 13.5196 55.9996 12.9196C55.3996 12.3196 55.0996 11.6196 55.0996 10.7196C55.0996 9.81963 55.3996 9.11963 55.9996 8.51963C56.5996 7.91963 57.2996 7.61963 58.1996 7.61963C59.0996 7.61963 59.7996 7.91963 60.3996 8.61963L59.8996 9.11963C59.4996 8.61963 58.8996 8.31963 58.1996 8.31963C57.4996 8.31963 56.9996 8.51963 56.4996 9.01963C55.9996 9.41963 55.7996 10.0196 55.7996 10.7196C55.7996 11.4196 55.9996 12.0196 56.4996 12.4196C56.8996 12.8196 57.4996 13.1196 58.1996 13.1196C58.8996 13.1196 59.4996 12.8196 59.9996 12.2196L60.4996 12.7196C60.1996 13.0196 59.8996 13.3196 59.4996 13.5196C59.0996 13.7196 58.6996 13.8196 58.1996 13.8196Z" fill="white" stroke="white" stroke-width="0.2" stroke-miterlimit="10"/>
<path d="M63.6997 13.7197H62.8997V8.41973H61.1997V7.71973H65.2997V8.41973H63.5997V13.7197H63.6997Z" fill="white" stroke="white" stroke-width="0.2" stroke-miterlimit="10"/>
<path d="M70.5998 7.71973L68.2998 12.8197C67.9998 13.5197 67.4998 13.9197 66.8998 13.9197C66.6998 13.9197 66.4998 13.9197 66.2998 13.8197L66.4998 13.1197C66.5998 13.2197 66.7998 13.2197 66.8998 13.2197C67.0998 13.2197 67.1998 13.2197 67.2998 13.1197C67.3998 13.0197 67.4998 12.9197 67.5998 12.7197L67.7998 12.2197L65.7998 7.81973H66.6998L68.1998 11.2197L69.6998 7.71973H70.5998Z" fill="white" stroke="white" stroke-width="0.2" stroke-miterlimit="10"/>
<path d="M71.5 13.7197V7.71973H75.8V13.7197H75V8.41973H72.2V13.7197H71.5Z" fill="white" stroke="white" stroke-width="0.2" stroke-miterlimit="10"/>
<path d="M77.1997 13.7197V7.71973H77.9997V10.3197H80.9997V7.71973H81.7997V13.7197H80.9997V11.0197H77.9997V13.7197H77.1997Z" fill="white" stroke="white" stroke-width="0.2" stroke-miterlimit="10"/>
<path d="M88.0998 12.9196C87.4998 13.5196 86.7998 13.8196 85.8998 13.8196C84.9998 13.8196 84.2998 13.5196 83.6998 12.9196C83.0998 12.3196 82.7998 11.6196 82.7998 10.7196C82.7998 9.81963 83.0998 9.11963 83.6998 8.51963C84.2998 7.91963 84.9998 7.61963 85.8998 7.61963C86.7998 7.61963 87.4998 7.91963 88.0998 8.51963C88.6998 9.11963 88.9998 9.81963 88.9998 10.7196C88.8998 11.6196 88.5998 12.3196 88.0998 12.9196ZM84.1998 12.4196C84.5998 12.8196 85.1998 13.1196 85.7998 13.1196C86.3998 13.1196 86.9998 12.9196 87.3998 12.4196C87.7998 12.0196 88.0998 11.4196 88.0998 10.7196C88.0998 10.0196 87.8998 9.41963 87.3998 9.01963C86.9998 8.61963 86.3998 8.31963 85.7998 8.31963C85.1998 8.31963 84.5998 8.51963 84.1998 9.01963C83.7998 9.41963 83.4998 10.0196 83.4998 10.7196C83.4998 11.4196 83.7998 12.0196 84.1998 12.4196Z" fill="white" stroke="white" stroke-width="0.2" stroke-miterlimit="10"/>
<path d="M92.1001 13.7197V7.71973H94.3001C94.8001 7.71973 95.2001 7.91973 95.5001 8.21973C95.8001 8.51973 96.0001 8.91973 96.0001 9.31973C96.0001 9.61973 95.9001 9.81973 95.8001 10.1197C95.7001 10.3197 95.5001 10.5197 95.2001 10.6197C95.5001 10.7197 95.7001 10.9197 95.9001 11.1197C96.1001 11.3197 96.2001 11.6197 96.2001 12.0197C96.2001 12.5197 96.0001 12.9197 95.7001 13.2197C95.3001 13.5197 94.9001 13.7197 94.4001 13.7197H92.1001ZM92.9001 10.3197H94.3001C94.6001 10.3197 94.8001 10.2197 95.0001 10.0197C95.2001 9.81973 95.3001 9.61973 95.3001 9.41973C95.3001 9.21973 95.1001 8.91973 95.0001 8.71973C94.8001 8.51973 94.6001 8.41973 94.3001 8.41973H92.9001V10.3197ZM92.9001 13.0197H94.5001C94.8001 13.0197 95.0001 12.9197 95.2001 12.7197C95.4001 12.5197 95.5001 12.3197 95.5001 12.0197C95.5001 11.8197 95.4001 11.5197 95.2001 11.3197C95.0001 11.1197 94.8001 11.0197 94.5001 11.0197H93.0001V13.0197H92.9001Z" fill="white" stroke="white" stroke-width="0.2" stroke-miterlimit="10"/>
<defs>
<linearGradient id="paint0_linear" x1="21.7996" y1="9.42953" x2="5.0172" y2="26.2119" gradientUnits="userSpaceOnUse">
<stop stop-color="#00A0FF"/>
<stop offset="0.00657445" stop-color="#00A1FF"/>
<stop offset="0.2601" stop-color="#00BEFF"/>
<stop offset="0.5122" stop-color="#00D2FF"/>
<stop offset="0.7604" stop-color="#00DFFF"/>
<stop offset="1" stop-color="#00E3FF"/>
</linearGradient>
<linearGradient id="paint1_linear" x1="33.8342" y1="20.721" x2="9.6373" y2="20.721" gradientUnits="userSpaceOnUse">
<stop stop-color="#FFE000"/>
<stop offset="0.4087" stop-color="#FFBD00"/>
<stop offset="0.7754" stop-color="#FFA500"/>
<stop offset="1" stop-color="#FF9C00"/>
</linearGradient>
<linearGradient id="paint2_linear" x1="24.8268" y1="23.0159" x2="2.06851" y2="45.7742" gradientUnits="userSpaceOnUse">
<stop stop-color="#FF3A44"/>
<stop offset="1" stop-color="#C31162"/>
</linearGradient>
<linearGradient id="paint3_linear" x1="7.2971" y1="0.896138" x2="17.4597" y2="11.0586" gradientUnits="userSpaceOnUse">
<stop stop-color="#32A071"/>
<stop offset="0.0685" stop-color="#2DA771"/>
<stop offset="0.4762" stop-color="#15CF74"/>
<stop offset="0.8009" stop-color="#06E775"/>
<stop offset="1" stop-color="#00F076"/>
</linearGradient>
</defs>
</svg>
