<svg width="135" height="41" viewBox="0 0 135 41" fill="none" xmlns="http://www.w3.org/2000/svg">
<path d="M130 40.7197H5C2.2 40.7197 0 38.4197 0 35.7197V5.71973C0 2.91973 2.3 0.719727 5 0.719727H130C132.8 0.719727 135 3.01973 135 5.71973V35.7197C135 38.5197 132.8 40.7197 130 40.7197Z" fill="black"/>
<path d="M130 1.51973C132.3 1.51973 134.2 3.41973 134.2 5.71973V35.7197C134.2 38.0197 132.3 39.9197 130 39.9197H5C2.7 39.9197 0.8 38.0197 0.8 35.7197V5.71973C0.8 3.41973 2.7 1.51973 5 1.51973H130ZM130 0.719727H5C2.3 0.719727 0 3.01973 0 5.71973V35.7197C0 38.5197 2.3 40.7197 5 40.7197H130C132.8 40.7197 135 38.4197 135 35.7197V5.71973C135 3.01973 132.8 0.719727 130 0.719727Z" fill="#A6A6A6"/>
<path d="M31.5 20.92C31.5 18.12 33.8 16.82 33.9 16.72C32.6 14.82 30.6 14.62 29.9 14.52C28.2 14.32 26.6 15.52 25.7 15.52C24.8 15.52 23.5 14.52 22.1 14.52C20.3 14.52 18.6 15.62 17.6 17.22C15.7 20.52 17.1 25.52 19 28.22C19.9 29.52 21 31.02 22.4 31.02C23.8 30.92 24.3 30.12 26 30.12C27.7 30.12 28.1 31.02 29.6 31.02C31.1 31.02 32 29.72 32.9 28.32C34 26.82 34.4 25.32 34.4 25.22C34.4 25.32 31.5 24.22 31.5 20.92Z" fill="white"/>
<path d="M28.8 12.8198C29.5 11.9198 30.1 10.6198 29.9 9.31982C28.8 9.31982 27.5 10.0198 26.7 11.0198C26 11.8198 25.4 13.1198 25.6 14.4198C26.8 14.5198 28 13.8198 28.8 12.8198Z" fill="white"/>
<path d="M49.0002 27.8197H44.3002L43.2002 31.2197H41.2002L45.7002 18.7197H47.8002L52.3002 31.1197H50.3002L49.0002 27.8197ZM44.8002 26.2197H48.6002L46.8002 20.8197H46.7002L44.8002 26.2197Z" fill="white"/>
<path d="M61.9004 26.6195C61.9004 29.4195 60.4004 31.2195 58.1004 31.2195C56.8004 31.2195 55.8004 30.6195 55.3004 29.6195V34.1195H53.4004V22.1195H55.2004V23.6195C55.7004 22.6195 56.8004 22.0195 58.1004 22.0195C60.4004 22.0195 61.9004 23.8195 61.9004 26.6195ZM60.0004 26.6195C60.0004 24.8195 59.1004 23.6195 57.6004 23.6195C56.2004 23.6195 55.2004 24.8195 55.2004 26.6195C55.2004 28.4195 56.2004 29.6195 57.6004 29.6195C59.0004 29.7195 60.0004 28.5195 60.0004 26.6195Z" fill="white"/>
<path d="M71.9004 26.6195C71.9004 29.4195 70.4004 31.2195 68.1004 31.2195C66.8004 31.2195 65.8004 30.6195 65.3004 29.6195V34.1195H63.4004V22.1195H65.2004V23.6195C65.7004 22.6195 66.8004 22.0195 68.1004 22.0195C70.4004 22.0195 71.9004 23.8195 71.9004 26.6195ZM70.0004 26.6195C70.0004 24.8195 69.1004 23.6195 67.6004 23.6195C66.2004 23.6195 65.2004 24.8195 65.2004 26.6195C65.2004 28.4195 66.2004 29.6195 67.6004 29.6195C69.0004 29.7195 70.0004 28.5195 70.0004 26.6195Z" fill="white"/>
<path d="M78.5002 27.7196C78.6002 28.9196 79.8002 29.7196 81.5002 29.7196C83.1002 29.7196 84.2002 28.9196 84.2002 27.8196C84.2002 26.8196 83.5002 26.3196 81.9002 25.9196L80.3002 25.5196C78.0002 24.9196 77.0002 23.9196 77.0002 22.2196C77.0002 20.1196 78.9002 18.6196 81.5002 18.6196C84.1002 18.6196 85.9002 20.1196 86.0002 22.2196H84.0002C83.9002 21.0196 82.9002 20.2196 81.4002 20.2196C79.9002 20.2196 78.9002 21.0196 78.9002 22.1196C78.9002 23.0196 79.6002 23.5196 81.2002 23.9196L82.6002 24.2196C85.1002 24.8196 86.2002 25.8196 86.2002 27.6196C86.2002 29.9196 84.3002 31.4196 81.4002 31.4196C78.6002 31.4196 76.8002 30.0196 76.7002 27.7196H78.5002Z" fill="white"/>
<path d="M90.1 19.9199V22.0199H91.8V23.5199H90.1V28.5199C90.1 29.3199 90.4 29.6199 91.2 29.6199C91.4 29.6199 91.7 29.6199 91.8 29.6199V31.1199C91.6 31.2199 91.2 31.2199 90.8 31.2199C89 31.2199 88.3 30.5199 88.3 28.8199V23.6199H87V22.1199H88.3V20.0199H90.1V19.9199Z" fill="white"/>
<path d="M92.8003 26.6195C92.8003 23.8195 94.5003 22.0195 97.1003 22.0195C99.7003 22.0195 101.4 23.8195 101.4 26.6195C101.4 29.5195 99.7003 31.2195 97.1003 31.2195C94.5003 31.2195 92.8003 29.5195 92.8003 26.6195ZM99.5003 26.6195C99.5003 24.6195 98.6003 23.5195 97.1003 23.5195C95.6003 23.5195 94.7003 24.7195 94.7003 26.6195C94.7003 28.6195 95.6003 29.7195 97.1003 29.7195C98.6003 29.7195 99.5003 28.6195 99.5003 26.6195Z" fill="white"/>
<path d="M102.9 22.1195H104.7V23.6195C105 22.6195 105.8 22.0195 106.9 22.0195C107.2 22.0195 107.4 22.0195 107.5 22.1195V23.8195C107.4 23.7195 107 23.7195 106.7 23.7195C105.5 23.7195 104.8 24.5195 104.8 25.8195V31.2195H102.9V22.1195Z" fill="white"/>
<path d="M116.1 28.5195C115.8 30.1195 114.2 31.3195 112.2 31.3195C109.6 31.3195 107.9 29.5195 107.9 26.7195C107.9 23.9195 109.5 22.0195 112.1 22.0195C114.6 22.0195 116.2 23.7195 116.2 26.5195V27.1195H109.8V27.2195C109.8 28.7195 110.8 29.8195 112.2 29.8195C113.2 29.8195 114 29.3195 114.3 28.5195H116.1ZM109.8 25.8195H114.3C114.3 24.4195 113.4 23.5195 112.1 23.5195C110.9 23.5195 109.9 24.4195 109.8 25.8195Z" fill="white"/>
<path d="M43.5001 11.9197H44.3001C45.0001 11.9197 45.4001 11.5197 45.4001 10.9197C45.4001 10.3197 45.0001 10.0197 44.3001 10.0197C43.6001 10.0197 43.1001 10.4197 43.1001 10.9197H42.2001C42.3001 9.81973 43.1001 9.21973 44.3001 9.21973C45.5001 9.21973 46.3001 9.91973 46.3001 10.8197C46.3001 11.5197 45.9001 12.0197 45.2001 12.2197V12.3197C46.0001 12.4197 46.5001 12.9197 46.5001 13.7197C46.5001 14.7197 45.5001 15.5197 44.3001 15.5197C43.0001 15.5197 42.1001 14.8197 42.1001 13.7197H43.0001C43.1001 14.3197 43.6001 14.6197 44.4001 14.6197C45.2001 14.6197 45.7001 14.2197 45.7001 13.6197C45.7001 13.0197 45.2001 12.6197 44.4001 12.6197H43.6001V11.9197H43.5001Z" fill="white"/>
<path d="M47.6001 14.1198C47.6001 13.3198 48.2001 12.8198 49.3001 12.8198L50.5001 12.7198V12.3198C50.5001 11.8198 50.2001 11.6198 49.6001 11.6198C49.1001 11.6198 48.8001 11.8198 48.7001 12.1198H47.8001C47.9001 11.3198 48.6001 10.8198 49.6001 10.8198C50.7001 10.8198 51.4001 11.4198 51.4001 12.3198V15.4198H50.5001V14.7198H50.4001C50.1001 15.2198 49.6001 15.4198 49.0001 15.4198C48.2001 15.4198 47.6001 14.9198 47.6001 14.1198ZM50.5001 13.7198V13.3198L49.4001 13.4198C48.8001 13.4198 48.5001 13.7198 48.5001 14.0198C48.5001 14.4198 48.9001 14.6198 49.3001 14.6198C50.0001 14.7198 50.5001 14.2198 50.5001 13.7198Z" fill="white"/>
<path d="M53.6998 11.6199V15.4199H52.7998V10.9199H55.7998V11.6199H53.6998Z" fill="white"/>
<path d="M61.2 13.1197C61.2 14.5197 60.5 15.4197 59.3 15.4197C58.7 15.4197 58.1 15.1197 57.9 14.6197H57.8V16.8197H57V10.8197H57.9V11.5197H58C58.3 11.0197 58.8 10.7197 59.4 10.7197C60.5 10.8197 61.2 11.6197 61.2 13.1197ZM60.3 13.1197C60.3 12.1197 59.8 11.6197 59.1 11.6197C58.4 11.6197 57.9 12.2197 57.9 13.1197C57.9 14.0197 58.4 14.6197 59.1 14.6197C59.8 14.6197 60.3 14.0197 60.3 13.1197Z" fill="white"/>
<path d="M62.4 16.9198V16.1198C62.5 16.1198 62.6 16.1198 62.7 16.1198C63.1 16.1198 63.4 15.9198 63.5 15.5198L63.6 15.3198L62 10.8198H63L64.1 14.4198H64.2L65.3 10.8198H66.2L64.5 15.5198C64.1 16.6198 63.7 16.9198 62.8 16.9198C62.7 17.0198 62.4 17.0198 62.4 16.9198Z" fill="white"/>
<path d="M66.7998 14.1198H67.6998C67.7998 14.5198 68.1998 14.7198 68.6998 14.7198C69.2998 14.7198 69.6998 14.4198 69.6998 14.0198C69.6998 13.6198 69.3998 13.4198 68.6998 13.4198H67.9998V12.7198H68.6998C69.1998 12.7198 69.4998 12.5198 69.4998 12.1198C69.4998 11.8198 69.1998 11.5198 68.6998 11.5198C68.1998 11.5198 67.7998 11.7198 67.7998 12.1198H66.8998C66.9998 11.3198 67.6998 10.8198 68.6998 10.8198C69.7998 10.8198 70.3998 11.3198 70.3998 12.0198C70.3998 12.5198 70.0998 12.8198 69.6998 12.9198V13.0198C70.2998 13.1198 70.5998 13.5198 70.5998 14.0198C70.5998 14.9198 69.8998 15.4198 68.7998 15.4198C67.6998 15.4198 66.8998 15.0198 66.7998 14.1198Z" fill="white"/>
<path d="M71.7998 15.3198V10.8198H72.6998V13.9198H72.7998L74.8998 10.8198H75.7998V15.3198H74.8998V12.2198H74.7998L72.6998 15.3198H71.7998Z" fill="white"/>
<path d="M80.6004 11.6199H79.2004V15.4199H78.3004V11.6199H76.9004V10.9199H80.6004V11.6199Z" fill="white"/>
<path d="M85.4003 14.1197C85.2003 14.9197 84.5003 15.4197 83.4003 15.4197C82.1003 15.4197 81.3003 14.5197 81.3003 13.1197C81.3003 11.7197 82.1003 10.7197 83.4003 10.7197C84.7003 10.7197 85.4003 11.6197 85.4003 13.0197V13.3197H82.2003C82.2003 14.1197 82.7003 14.6197 83.4003 14.6197C83.9003 14.6197 84.3003 14.4197 84.5003 14.1197H85.4003ZM82.2003 12.7197H84.5003C84.5003 12.0197 84.0003 11.5197 83.4003 11.5197C82.7003 11.5197 82.3003 12.0197 82.2003 12.7197Z" fill="white"/>
<path d="M89.1 10.8198H91.1C92 10.8198 92.5 11.2198 92.5 11.9198C92.5 12.4198 92.2 12.8198 91.7 12.9198V13.0198C92.3 13.1198 92.7 13.5198 92.7 14.0198C92.7 14.8198 92.1 15.3198 91.1 15.3198H89V10.8198H89.1ZM90 11.5198V12.7198H90.9C91.4 12.7198 91.7 12.5198 91.7 12.1198C91.7 11.7198 91.5 11.5198 91 11.5198H90ZM90 13.3198V14.7198H91.1C91.6 14.7198 91.9 14.5198 91.9 14.0198C91.9 13.5198 91.6 13.3198 91 13.3198H90Z" fill="white"/>
</svg>
