<svg width="16" height="16" viewBox="0 0 16 16" fill="none" xmlns="http://www.w3.org/2000/svg">
<path d="M8.00001 7.66665C7.55798 7.66665 7.13406 7.49105 6.8215 7.17849C6.50894 6.86593 6.33334 6.44201 6.33334 5.99998C6.33334 5.55795 6.50894 5.13403 6.8215 4.82147C7.13406 4.50891 7.55798 4.33331 8.00001 4.33331C8.44204 4.33331 8.86596 4.50891 9.17852 4.82147C9.49108 5.13403 9.66668 5.55795 9.66668 5.99998C9.66668 6.21885 9.62357 6.43558 9.53981 6.63779C9.45605 6.83999 9.33329 7.02373 9.17852 7.17849C9.02376 7.33326 8.84003 7.45602 8.63782 7.53978C8.43561 7.62354 8.21888 7.66665 8.00001 7.66665ZM8.00001 1.33331C6.76233 1.33331 5.57535 1.82498 4.70018 2.70015C3.82501 3.57532 3.33334 4.7623 3.33334 5.99998C3.33334 9.49998 8.00001 14.6666 8.00001 14.6666C8.00001 14.6666 12.6667 9.49998 12.6667 5.99998C12.6667 4.7623 12.175 3.57532 11.2998 2.70015C10.4247 1.82498 9.23769 1.33331 8.00001 1.33331Z" fill="black" fill-opacity="0.5"/>
</svg>
