<svg width="16" height="18" viewBox="0 0 16 18" fill="none" xmlns="http://www.w3.org/2000/svg">
<path d="M8.0001 7.66659C7.55807 7.66659 7.13415 7.49099 6.82159 7.17843C6.50903 6.86587 6.33344 6.44195 6.33344 5.99992C6.33344 5.55789 6.50903 5.13397 6.82159 4.82141C7.13415 4.50885 7.55807 4.33325 8.0001 4.33325C8.44213 4.33325 8.86605 4.50885 9.17861 4.82141C9.49117 5.13397 9.66677 5.55789 9.66677 5.99992C9.66677 6.21879 9.62366 6.43552 9.5399 6.63772C9.45614 6.83993 9.33338 7.02367 9.17861 7.17843C9.02385 7.33319 8.84012 7.45596 8.63791 7.53972C8.4357 7.62348 8.21897 7.66659 8.0001 7.66659ZM8.0001 1.33325C6.76242 1.33325 5.57544 1.82492 4.70027 2.70009C3.8251 3.57526 3.33344 4.76224 3.33344 5.99992C3.33344 9.49992 8.0001 14.6666 8.0001 14.6666C8.0001 14.6666 12.6668 9.49992 12.6668 5.99992C12.6668 4.76224 12.1751 3.57526 11.2999 2.70009C10.4248 1.82492 9.23778 1.33325 8.0001 1.33325Z" fill="#1946BA"/>
</svg>
