<svg width="35" height="35" viewBox="0 0 35 35" fill="none" xmlns="http://www.w3.org/2000/svg">
<path d="M29.1667 16.0416H33.5417V18.9583H29.1667V16.0416ZM1.45834 16.0416H5.83334V18.9583H1.45834V16.0416ZM18.9583 1.45825V5.83325H16.0417V1.45825H18.9583ZM7.17501 5.10408L10.2813 8.22492L8.21043 10.2812L5.10418 7.1895L7.17501 5.10408ZM24.7188 8.21034L27.8104 5.10408L29.8958 7.1895L26.7896 10.2812L24.7188 8.21034ZM17.5 8.74992C19.8207 8.74992 22.0462 9.67179 23.6872 11.3127C25.3281 12.9537 26.25 15.1793 26.25 17.4999C26.25 20.7374 24.4854 23.5666 21.875 25.0833V27.7083C21.875 28.095 21.7214 28.466 21.4479 28.7394C21.1744 29.0129 20.8034 29.1666 20.4167 29.1666H14.5833C14.1966 29.1666 13.8256 29.0129 13.5521 28.7394C13.2787 28.466 13.125 28.095 13.125 27.7083V25.0833C10.5146 23.5666 8.75001 20.7374 8.75001 17.4999C8.75001 15.1793 9.67188 12.9537 11.3128 11.3127C12.9538 9.67179 15.1794 8.74992 17.5 8.74992ZM20.4167 30.6249V32.0833C20.4167 32.47 20.263 32.841 19.9895 33.1144C19.716 33.3879 19.3451 33.5416 18.9583 33.5416H16.0417C15.6549 33.5416 15.284 33.3879 15.0105 33.1144C14.737 32.841 14.5833 32.47 14.5833 32.0833V30.6249H20.4167ZM16.0417 26.2499H18.9583V23.1437C21.4813 22.502 23.3333 20.2124 23.3333 17.4999C23.3333 15.9528 22.7188 14.4691 21.6248 13.3751C20.5308 12.2812 19.0471 11.6666 17.5 11.6666C15.9529 11.6666 14.4692 12.2812 13.3752 13.3751C12.2813 14.4691 11.6667 15.9528 11.6667 17.4999C11.6667 20.2124 13.5188 22.502 16.0417 23.1437V26.2499Z" fill="#1946BA"/>
</svg>
