<svg width="47" height="43" viewBox="0 0 47 43" fill="none" xmlns="http://www.w3.org/2000/svg">
<path d="M45.1688 32.2878L40.3345 27.4327L41.3377 26.4257C41.5448 26.2172 41.5448 25.8797 41.3377 25.6707L36.1797 20.4916C36.1797 20.4916 36.1797 20.4911 36.1792 20.4911L26.7879 11.0589L24.8995 7.22881C24.8238 7.07481 24.6789 6.96731 24.5096 6.93931C24.3403 6.91181 24.1691 6.96681 24.0481 7.08831L22.1766 8.96785L14.8365 1.59671C14.4143 1.1727 13.8552 0.902696 13.2622 0.836195L5.96189 0.0166752C4.51457 -0.146328 3.20517 0.904192 3.04336 2.35822C2.88155 3.81125 3.92808 5.12627 5.3754 5.28828L11.7551 6.00429L18.4406 12.7184L16.5696 14.5975C16.4486 14.7195 16.3933 14.8915 16.4207 15.061C16.4486 15.231 16.5556 15.3765 16.7095 15.453L19.9387 17.0585L19.0226 17.9785C19.0221 17.9785 19.0221 17.9785 19.0221 17.979C17.7824 19.224 17.7824 21.2496 19.0221 22.4946C19.0221 22.4946 19.0221 22.4951 19.0226 22.4951L26.6022 30.1078C26.7022 30.2073 26.8372 30.2638 26.9781 30.2638C27.1185 30.2638 27.2539 30.2078 27.3535 30.1078L33.0471 24.3896L37.8297 29.1922C37.9337 29.2967 38.0692 29.3487 38.2051 29.3487C38.341 29.3487 38.4769 29.2967 38.581 29.1922L39.5832 28.1852L44.4175 33.0393C44.4175 33.0398 44.418 33.0408 44.418 33.0408C45.3978 34.0243 45.9375 35.3324 45.9375 36.7239C45.9375 38.1149 45.3978 39.4229 44.418 40.4069C43.4382 41.391 42.1363 41.933 40.7507 41.933C39.3656 41.933 38.0632 41.391 37.0834 40.4069L31.3374 34.6363C31.3374 34.6358 31.3369 34.6358 31.3369 34.6358C29.3748 32.6653 26.1815 32.6643 24.2184 34.6358L20.3912 38.4794C19.6409 39.2329 18.6437 39.6474 17.5832 39.6474C16.5228 39.6474 15.5255 39.2329 14.7757 38.4804V38.4794L0.906499 24.5511C0.698886 24.3421 0.362824 24.3421 0.15571 24.5511C-0.0519032 24.7591 -0.0519032 25.0972 0.15571 25.3052L14.0239 39.2339C14.0239 39.2339 14.0239 39.2339 14.0244 39.2344C14.9754 40.1889 16.239 40.7145 17.5837 40.7145C18.928 40.7145 20.1921 40.1889 21.1425 39.2339L24.9702 35.3904C26.518 33.8353 29.0373 33.8353 30.5852 35.3899L36.3326 41.1615C37.5126 42.3465 39.0818 43 40.7507 43C42.4201 43 43.9894 42.3465 45.1693 41.1615C46.3498 39.9764 47 38.4004 47 36.7239C46.999 35.0488 46.3493 33.4738 45.1688 32.2878ZM12.375 5.11827C12.2894 5.03277 12.1778 4.97827 12.0578 4.96527L5.49289 4.22875C4.62759 4.13175 4.00227 3.34574 4.09886 2.47722C4.19544 1.60871 4.97859 0.980198 5.84389 1.0777L13.1442 1.89721C13.4987 1.93721 13.8328 2.09822 14.0852 2.35122L21.4248 9.72286L19.1923 11.9649L12.375 5.11827ZM17.8441 14.8275L19.5672 13.0969C19.5672 13.0964 19.5672 13.0964 19.5672 13.0964L22.549 10.1019C22.5495 10.1014 22.55 10.1009 22.5505 10.1004C22.551 10.1004 22.551 10.0994 22.5515 10.0989L24.2736 8.36934L25.7035 11.2689L20.7303 16.264L17.8441 14.8275ZM26.9781 28.9772L20.1488 22.1186L21.27 20.9926L25.8285 25.5697C25.932 25.6742 26.0675 25.7262 26.2044 25.7262C26.3398 25.7262 26.4757 25.6742 26.5793 25.5697C26.7874 25.3617 26.7874 25.0241 26.5793 24.8151L22.0213 20.2376L23.5487 18.7035L29.4893 26.4537L26.9781 28.9772ZM32.6737 23.2566C32.6727 23.2576 32.6717 23.2586 32.6712 23.2591C32.6697 23.2596 32.6692 23.2611 32.6687 23.2616L30.2471 25.6932L24.0217 17.572C24.0147 17.562 24.0063 17.5555 23.9978 17.547C23.9903 17.538 23.9849 17.5285 23.9764 17.52C23.9719 17.5155 23.9664 17.5125 23.962 17.508C23.9485 17.495 23.9331 17.484 23.9187 17.4725C23.9052 17.462 23.8913 17.452 23.8773 17.4435C23.8624 17.434 23.8469 17.4265 23.831 17.4185C23.8156 17.411 23.7997 17.4035 23.7837 17.3975C23.7683 17.3915 23.7519 17.3875 23.7354 17.383C23.719 17.3785 23.7021 17.374 23.6851 17.3715C23.6682 17.3685 23.6513 17.368 23.6344 17.3665C23.6174 17.3655 23.601 17.3645 23.5841 17.365C23.5667 17.3655 23.5492 17.368 23.5323 17.37C23.5159 17.372 23.4994 17.374 23.483 17.378C23.4666 17.382 23.4506 17.387 23.4337 17.3925C23.4173 17.398 23.4009 17.4035 23.3849 17.411C23.37 17.418 23.3551 17.426 23.3406 17.4345C23.3242 17.444 23.3083 17.4535 23.2923 17.4645C23.2873 17.468 23.2814 17.471 23.2764 17.4745C23.2669 17.4815 23.2605 17.4905 23.252 17.498C23.243 17.506 23.2336 17.5115 23.2251 17.52L19.4473 21.3146C18.9703 20.5001 19.0778 19.433 19.7734 18.7345L21.2122 17.289C21.2127 17.289 21.2132 17.289 21.2132 17.2885L26.3498 12.1294L35.0521 20.8686L32.6737 23.2566ZM38.2046 28.0627L33.7979 23.6366L35.8024 21.6226L40.21 26.0487L38.2046 28.0627Z" fill="#1951A0"/>
<path d="M4.43362 18.9001C6.43308 18.9001 8.06012 17.266 8.06012 15.2585C8.06012 14.6654 7.91574 14.0779 7.6429 13.5584L4.91805 7.49077C4.83242 7.29976 4.64273 7.17676 4.43362 7.17676C4.22452 7.17676 4.03532 7.29976 3.94919 7.49077L1.22484 13.5584C0.951506 14.0784 0.807129 14.6659 0.807129 15.2585C0.807129 17.266 2.43417 18.9001 4.43362 18.9001ZM2.1703 14.0444C2.17627 14.0339 2.18125 14.0234 2.18623 14.0124L4.43362 9.0073L6.68101 14.0124C6.68599 14.0234 6.69147 14.0339 6.69695 14.0444C6.89411 14.4139 6.99766 14.8335 6.99766 15.258C6.99766 16.6775 5.84758 17.8325 4.43362 17.8325C3.01967 17.8325 1.86958 16.6775 1.86958 15.258C1.86958 14.834 1.97314 14.4139 2.1703 14.0444Z" fill="#1951A0"/>
</svg>
