<svg width="47" height="47" viewBox="0 0 47 47" fill="none" xmlns="http://www.w3.org/2000/svg">
<path d="M23.5 0C10.5274 0 0 10.5274 0 23.5C0 36.4726 10.5274 47 23.5 47C36.4726 47 47 36.4726 47 23.5C47 10.5274 36.4726 0 23.5 0ZM23.5 1.02174C35.9205 1.02174 45.9783 11.0795 45.9783 23.5C45.9783 35.9205 35.9205 45.9783 23.5 45.9783C11.0795 45.9783 1.02174 35.9205 1.02174 23.5C1.02174 11.0795 11.0795 1.02174 23.5 1.02174ZM23.5 6.13043C13.9131 6.13043 6.13043 13.9131 6.13043 23.5C6.13043 33.0869 13.9131 40.8696 23.5 40.8696C33.0869 40.8696 40.8696 33.0869 40.8696 23.5C40.8696 13.9131 33.0869 6.13043 23.5 6.13043ZM23.5 7.15217C24.4429 7.15217 25.3627 7.23877 26.2619 7.39167C25.6256 9.19627 25.4377 11.5863 25.6073 13.7935C25.8551 15.6637 26.0573 18.1288 27.5231 19.3013C29.1901 20.2657 31.1504 19.9043 32.7914 19.5088C34.8376 19.0092 37.008 18.1517 38.6824 17.4175C39.201 18.7112 39.5473 20.0872 39.7201 21.5204C37.8209 21.7123 35.57 22.0103 33.5897 22.4943C31.9123 22.9936 29.6364 23.511 28.8482 25.0645C28.2801 27.0314 29.2353 29.0164 30.1254 30.5723C31.2531 32.5246 32.8555 34.4465 34.4997 35.6012C33.4386 36.5655 32.2433 37.399 30.9555 38.0598C30.3577 36.3328 29.2822 34.4236 28.05 32.8393C26.6682 31.0628 25.1178 29.6304 23.5 29.6304C21.6014 29.9609 20.2201 31.5089 19.1417 32.8234C17.8561 34.4011 16.685 36.3175 16.0605 38.0598C14.7684 37.3979 13.5642 36.5687 12.5004 35.6012C14.1498 34.4477 15.7482 32.5106 16.8747 30.5564C17.7025 28.9501 18.9116 26.7201 18.1519 25.0645C17.0566 23.4384 15.0755 22.9055 13.4104 22.4943C11.43 22.0103 9.17909 21.7123 7.27992 21.5204C7.45611 20.0574 7.82978 18.6548 8.36551 17.3376C10.0333 18.0692 12.1977 18.9406 14.2245 19.461C15.9116 19.8144 18.104 20.3187 19.4769 19.3013C20.9326 17.8087 21.244 15.6475 21.3927 13.7935C21.5623 11.5863 21.3744 9.19627 20.7381 7.39167C21.6995 7.25747 22.6753 7.15509 23.5 7.15217V7.15217ZM19.7164 7.59918C20.3103 9.18758 20.5525 11.5586 20.3869 13.7137C20.1675 15.4126 20.0162 17.2101 18.8543 18.4871C17.4509 19.1717 15.8306 18.8133 14.48 18.4713C12.5433 17.974 10.4092 17.1173 8.76461 16.3958C10.7085 12.0583 14.9724 8.67517 19.7164 7.59928V7.59918ZM27.2836 7.59918C32.1453 8.74971 36.1659 12.065 38.2673 16.4755C36.6277 17.1938 34.4782 18.0448 32.536 18.519C31.0576 18.8216 29.4789 19.1925 28.1457 18.4873C27.0164 17.1495 26.7416 15.305 26.6131 13.7139C26.4475 11.5588 26.6897 9.18783 27.2836 7.59943V7.59918ZM23.5 18.3913C22.9357 18.3913 22.4783 18.8487 22.4783 19.413C22.4783 19.9774 22.9357 20.4348 23.5 20.4348C24.0643 20.4348 24.5217 19.9774 24.5217 19.413C24.5217 18.8487 24.0643 18.3913 23.5 18.3913ZM19.413 21.4565C18.8488 21.4565 18.3913 21.9139 18.3913 22.4783C18.3913 23.0426 18.8488 23.5 19.413 23.5C19.9773 23.5 20.4348 23.0426 20.4348 22.4783C20.4348 21.9139 19.9773 21.4565 19.413 21.4565ZM27.587 21.4565C27.0227 21.4565 26.5652 21.9139 26.5652 22.4783C26.5652 23.0426 27.0227 23.5 27.587 23.5C28.1512 23.5 28.6087 23.0426 28.6087 22.4783C28.6087 21.9139 28.1512 21.4565 27.587 21.4565ZM7.1841 22.5421C9.05792 22.7309 11.2731 23.0203 13.1709 23.4841C14.6432 23.9255 16.3204 24.2638 17.2418 25.5115C17.5534 27.142 16.7369 28.7502 15.9966 30.0455C14.8947 31.9571 13.2637 33.8921 11.766 34.8828C8.91279 31.9395 7.15217 27.9273 7.15217 23.5C7.15217 23.1798 7.16597 22.8577 7.1841 22.5421ZM39.8159 22.5421C39.8341 22.858 39.8478 23.1795 39.8478 23.5C39.8478 27.9273 38.0892 31.9395 35.234 34.8828C33.744 33.8869 32.12 31.9669 31.0194 30.0614C30.2265 28.5979 29.4781 27.1384 29.7582 25.5115C30.7645 24.2706 32.4346 23.8292 33.8292 23.4841C35.8599 23.0399 37.9661 22.7312 39.8159 22.5421ZM20.9457 26.5652C20.3814 26.5652 19.9239 27.0226 19.9239 27.587C19.9239 28.1513 20.3814 28.6087 20.9457 28.6087C21.5099 28.6087 21.9674 28.1513 21.9674 27.587C21.9674 27.0226 21.5099 26.5652 20.9457 26.5652ZM26.0543 26.5652C25.4901 26.5652 25.0326 27.0226 25.0326 27.587C25.0326 28.1513 25.4901 28.6087 26.0543 28.6087C26.6186 28.6087 27.0761 28.1513 27.0761 27.587C27.0761 27.0226 26.6186 26.5652 26.0543 26.5652ZM23.5 30.6522C24.4366 30.6522 25.9514 31.7901 27.2517 33.462C28.4372 34.9862 29.4722 36.894 30.0136 38.5068C28.0186 39.3731 25.8147 39.8478 23.5 39.8478C21.1853 39.8478 18.9806 39.3731 16.9864 38.5068C17.5427 36.9082 18.6926 34.9927 19.9399 33.462C20.9814 32.2738 21.9872 31.0911 23.5 30.6522V30.6522Z" fill="#1951A0"/>
</svg>
